{"asset":{"generator":"3D Builder","version":"2.0"},"scene":0,"scenes":[{"nodes":[0]}],"nodes":[{"mesh":0,"matrix":[1,0,0,0,0,-1.1920928955078125E-7,-0.99999988079071045,0,0,0.99999988079071045,-1.1920928955078125E-7,0,-0.13440695405006409,-0.099293701350688934,0.037014946341514587,1]}],"meshes":[{"primitives":[{"attributes":{"POSITION":0,"TEXCOORD_0":1},"mode":4,"indices":2,"material":0}]}],"materials":[{"pbrMetallicRoughness":{"baseColorFactor":[1,1,1,1],"metallicFactor":0,"roughnessFactor":1,"baseColorTexture":{"index":0,"texCoord":0}},"alphaMode":"OPAQUE"}],"textures":[{"source":0,"sampler":0}],"images":[{"uri":"DuckCM.png"}],"samplers":[{"magFilter":9729,"wrapS":10497,"wrapT":10497}],"accessors":[{"bufferView":0,"byteOffset":0,"count":2277,"componentType":5126,"type":"VEC3","min":[-0.69298499822616577,-0.539251983165741,0.099293723702430725],"max":[0.96179896593093872,0.61328184604644775,1.6396998167037964]},{"bufferView":1,"byteOffset":0,"count":2277,"componentType":5126,"type":"VEC2"},{"bufferView":2,"byteOffset":0,"count":12636,"componentType":5125,"type":"SCALAR"}],"bufferViews":[{"buffer":0,"byteOffset":0,"byteLength":27324,"byteStride":12,"target":34962},{"buffer":0,"byteOffset":27324,"byteLength":18216,"byteStride":8,"target":34962},{"buffer":0,"byteOffset":45540,"byteLength":50544,"target":34963}],"buffers":[{"byteLength":96084,"uri":"Duck.bin"}]}