# Blender v2.69 (sub 0) OBJ File: ''
# www.blender.org
mtllib geode.mtl
o Icosphere
v 0.000000 -1.000000 0.000000
v 0.723607 -0.447220 0.525725
v -0.276388 -0.447220 0.850649
v -0.894426 -0.447216 0.000000
v -0.276388 -0.447220 -0.850649
v 0.723607 -0.447220 -0.525725
v 0.276388 0.447220 0.850649
v -0.723607 0.447220 0.525725
v -0.723607 0.447220 -0.525725
v 0.276388 0.447220 -0.850649
v 0.894426 0.447216 0.000000
v 0.000000 1.000000 0.000000
v -0.162456 -0.850654 0.499995
v 0.425323 -0.850654 0.309011
v 0.262869 -0.525738 0.809012
v 0.850648 -0.525736 0.000000
v 0.425323 -0.850654 -0.309011
v -0.525730 -0.850652 0.000000
v -0.688189 -0.525736 0.499997
v -0.162456 -0.850654 -0.499995
v -0.688189 -0.525736 -0.499997
v 0.262869 -0.525738 -0.809012
v 0.951058 0.000000 0.309013
v 0.951058 0.000000 -0.309013
v 0.000000 0.000000 1.000000
v 0.587786 0.000000 0.809017
v -0.951058 0.000000 0.309013
v -0.587786 0.000000 0.809017
v -0.587786 0.000000 -0.809017
v -0.951058 0.000000 -0.309013
v 0.587786 0.000000 -0.809017
v 0.000000 0.000000 -1.000000
v 0.688189 0.525736 0.499997
v -0.262869 0.525738 0.809012
v -0.850648 0.525736 0.000000
v -0.262869 0.525738 -0.809012
v 0.688189 0.525736 -0.499997
v 0.162456 0.850654 0.499995
v 0.525730 0.850652 0.000000
v -0.425323 0.850654 0.309011
v -0.425323 0.850654 -0.309011
v 0.162456 0.850654 -0.499995
vt 0.995266 0.147144
vt 1.361262 0.040083
vt 1.158476 0.208555
vt 0.453155 0.208628
vt 0.361262 0.040083
vt 0.604411 0.198216
vt 1.039333 0.314565
vt 0.916577 0.295451
vt 0.797151 0.162559
vt 0.519234 0.354298
vt 0.228856 0.350008
vt 0.315828 0.238202
vt 0.310089 0.437969
vt 0.058801 0.486962
vt 0.138443 0.406044
vt 0.125568 0.604437
vt 0.882369 0.460260
vt 0.970929 0.468992
vt 0.909171 0.628493
vt 0.709579 0.299450
vt 0.805787 0.362204
vt 0.719689 0.474675
vt 0.409171 0.371507
vt 0.219689 0.525325
vt 0.019234 0.645702
vt 0.810089 0.562031
vt 0.625568 0.395563
vt 0.382369 0.539740
vt 0.470929 0.531008
vt 0.416577 0.704549
vt 0.209579 0.700550
vt 0.305787 0.637796
vt 0.297151 0.837441
vt 0.953155 0.791372
vt 1.104411 0.801784
vt 0.861262 0.959917
vt 0.728856 0.649992
vt 0.815828 0.761798
vt 0.658476 0.791445
vt 0.558801 0.513038
vt 0.638443 0.593956
vt 0.539333 0.685435
vt 0.158476 0.208555
vt 0.039333 0.314565
vt 1.058801 0.486962
vt 1.019234 0.645702
vt 0.104411 0.801784
vt 0.495266 0.852857
vt 1.297151 0.837441
vn 0.102381 -0.943523 0.315090
vn 0.700224 -0.661699 0.268032
vn -0.268034 -0.943523 0.194737
vn -0.268034 -0.943523 -0.194737
vn 0.102381 -0.943523 -0.315090
vn 0.904989 -0.330385 0.268032
vn 0.024747 -0.330386 0.943521
vn -0.889697 -0.330385 0.315095
vn -0.574602 -0.330388 -0.748784
vn 0.534576 -0.330387 -0.777865
vn 0.802609 -0.125627 0.583126
vn -0.306569 -0.125629 0.943522
vn -0.992077 -0.125628 0.000000
vn -0.306569 -0.125629 -0.943522
vn 0.802609 -0.125627 -0.583126
vn 0.408946 0.661698 0.628425
vn -0.471300 0.661698 0.583122
vn -0.700224 0.661699 -0.268032
vn 0.038530 0.661699 -0.748779
vn 0.724042 0.661695 -0.194736
vn -0.038531 -0.661699 0.748779
vn 0.187594 -0.794658 0.577345
vn 0.471300 -0.661699 0.583122
vn 0.700224 -0.661699 -0.268032
vn 0.607060 -0.794656 0.000000
vn 0.331305 -0.943524 0.000000
vn -0.724042 -0.661695 0.194736
vn -0.491120 -0.794657 0.356821
vn -0.408946 -0.661698 0.628425
vn -0.408946 -0.661698 -0.628425
vn -0.491120 -0.794657 -0.356821
vn -0.724042 -0.661695 -0.194736
vn 0.471300 -0.661699 -0.583122
vn 0.187594 -0.794658 -0.577345
vn -0.038531 -0.661699 -0.748779
vn 0.992077 0.125628 0.000000
vn 0.982246 -0.187598 0.000000
vn 0.904989 -0.330385 -0.268032
vn 0.306569 0.125629 0.943522
vn 0.303531 -0.187597 0.934171
vn 0.534576 -0.330386 0.777865
vn -0.802609 0.125627 0.583126
vn -0.794656 -0.187595 0.577348
vn -0.574602 -0.330388 0.748784
vn -0.802609 0.125627 -0.583126
vn -0.794656 -0.187595 -0.577348
vn -0.889697 -0.330385 -0.315095
vn 0.306569 0.125629 -0.943522
vn 0.303531 -0.187597 -0.934171
vn 0.024747 -0.330386 -0.943521
vn 0.574602 0.330388 0.748784
vn 0.794656 0.187595 0.577348
vn 0.889697 0.330385 0.315095
vn -0.534576 0.330386 0.777865
vn -0.303531 0.187597 0.934171
vn -0.024747 0.330386 0.943521
vn -0.904989 0.330385 -0.268032
vn -0.982246 0.187598 0.000000
vn -0.904989 0.330385 0.268032
vn -0.024747 0.330386 -0.943521
vn -0.303531 0.187597 -0.934171
vn -0.534576 0.330386 -0.777865
vn 0.889697 0.330385 -0.315095
vn 0.794656 0.187595 -0.577348
vn 0.574602 0.330388 -0.748784
vn 0.268034 0.943523 0.194737
vn 0.491119 0.794657 0.356821
vn 0.724042 0.661695 0.194736
vn -0.102381 0.943523 0.315090
vn -0.187594 0.794658 0.577345
vn 0.038530 0.661699 0.748779
vn -0.331305 0.943524 0.000000
vn -0.607060 0.794656 0.000000
vn -0.700224 0.661699 0.268032
vn -0.102381 0.943523 -0.315090
vn -0.187594 0.794658 -0.577345
vn -0.471300 0.661699 -0.583122
vn 0.268034 0.943523 -0.194737
vn 0.491119 0.794657 -0.356821
vn 0.408946 0.661699 -0.628425
usemtl None
s off
f 1/1/1 14/2/1 13/3/1
f 2/4/2 14/5/2 16/6/2
f 1/1/3 13/3/3 18/7/3
f 1/1/4 18/7/4 20/8/4
f 1/1/5 20/8/5 17/9/5
f 2/4/6 16/6/6 23/10/6
f 3/11/7 15/12/7 25/13/7
f 4/14/8 19/15/8 27/16/8
f 5/17/9 21/18/9 29/19/9
f 6/20/10 22/21/10 31/22/10
f 2/4/11 23/10/11 26/23/11
f 3/11/12 25/13/12 28/24/12
f 4/14/13 27/16/13 30/25/13
f 5/17/14 29/19/14 32/26/14
f 6/20/15 31/22/15 24/27/15
f 7/28/16 33/29/16 38/30/16
f 8/31/17 34/32/17 40/33/17
f 9/34/18 35/35/18 41/36/18
f 10/37/19 36/38/19 42/39/19
f 11/40/20 37/41/20 39/42/20
f 13/43/21 15/12/21 3/11/21
f 13/43/22 14/5/22 15/12/22
f 14/5/23 2/4/23 15/12/23
f 16/6/24 17/9/24 6/20/24
f 16/6/25 14/5/25 17/9/25
f 14/2/26 1/1/26 17/9/26
f 18/44/27 19/15/27 4/14/27
f 18/44/28 13/43/28 19/15/28
f 13/43/29 3/11/29 19/15/29
f 20/8/30 21/18/30 5/17/30
f 20/8/31 18/7/31 21/18/31
f 18/7/32 4/45/32 21/18/32
f 17/9/33 22/21/33 6/20/33
f 17/9/34 20/8/34 22/21/34
f 20/8/35 5/17/35 22/21/35
f 23/10/36 24/27/36 11/40/36
f 23/10/37 16/6/37 24/27/37
f 16/6/38 6/20/38 24/27/38
f 25/13/39 26/23/39 7/28/39
f 25/13/40 15/12/40 26/23/40
f 15/12/41 2/4/41 26/23/41
f 27/16/42 28/24/42 8/31/42
f 27/16/43 19/15/43 28/24/43
f 19/15/44 3/11/44 28/24/44
f 29/19/45 30/46/45 9/34/45
f 29/19/46 21/18/46 30/46/46
f 21/18/47 4/45/47 30/46/47
f 31/22/48 32/26/48 10/37/48
f 31/22/49 22/21/49 32/26/49
f 22/21/50 5/17/50 32/26/50
f 26/23/51 33/29/51 7/28/51
f 26/23/52 23/10/52 33/29/52
f 23/10/53 11/40/53 33/29/53
f 28/24/54 34/32/54 8/31/54
f 28/24/55 25/13/55 34/32/55
f 25/13/56 7/28/56 34/32/56
f 30/46/57 35/35/57 9/34/57
f 30/25/58 27/16/58 35/47/58
f 27/16/59 8/31/59 35/47/59
f 32/26/60 36/38/60 10/37/60
f 32/26/61 29/19/61 36/38/61
f 29/19/62 9/34/62 36/38/62
f 24/27/63 37/41/63 11/40/63
f 24/27/64 31/22/64 37/41/64
f 31/22/65 10/37/65 37/41/65
f 38/30/66 39/42/66 12/48/66
f 38/30/67 33/29/67 39/42/67
f 33/29/68 11/40/68 39/42/68
f 40/33/69 38/30/69 12/48/69
f 40/33/70 34/32/70 38/30/70
f 34/32/71 7/28/71 38/30/71
f 41/36/72 40/49/72 12/48/72
f 41/36/73 35/35/73 40/49/73
f 35/47/74 8/31/74 40/33/74
f 42/39/75 41/36/75 12/48/75
f 42/39/76 36/38/76 41/36/76
f 36/38/77 9/34/77 41/36/77
f 39/42/78 42/39/78 12/48/78
f 39/42/79 37/41/79 42/39/79
f 37/41/80 10/37/80 42/39/80
