ply
format ascii 1.0
element vertex 62
property float x
property float y
property float z
element face 120
property list uchar int vertex_indices
end_header
0   0   5.236
2.618   0   4.236
1.618   2.618   4.236
0   1.618   4.236  
-1.618   2.618   4.236
-2.618   0   4.236
-1.618   -2.618   4.236
0   -1.618   4.236
1.618   -2.618   4.236
4.236   1.618   2.618
2.618   2.618   2.618
0   4.236   2.618
-2.618   2.618   2.618
-4.236   1.618   2.618
-4.236   -1.618   2.618
-2.618   -2.618   2.618
0   -4.236   2.618
2.618   -2.618   2.618
4.236   -1.618   2.618
4.236   0   1.618
2.618   4.236   1.618
-2.618   4.236   1.618
-4.236   0   1.618
-2.618   -4.236   1.618
2.618    -4.236    1.618
5.236    0    0
4.236    2.618    0
1.618    4.236    0
0    5.236    0
-1.618    4.236    0
-4.236    2.618    0
-5.236    0    0
-4.236    -2.618    0
-1.618    -4.236    0
0    -5.236    0
1.618    -4.236    0
4.236    -2.618    0
4.236     0     -1.618
2.618     4.236     -1.618
-2.618    4.236    -1.618
-4.236    0    -1.618
-2.618    -4.236    -1.618
2.618     -4.236     -1.618
4.236    1.618    -2.618
2.618    2.618    -2.618
0    4.236    -2.618
-2.618    2.618    -2.618
-4.236    1.618    -2.618
-4.236    -1.618    -2.618
-2.618    -2.618    -2.618
0    -4.236    -2.618
2.618    -2.618    -2.618
4.236     -1.618     -2.618
2.618     0     -4.236
1.618    2.618    -4.236
0    1.618    -4.236
-1.618    2.618    -4.236
-2.618    0    -4.236
-1.618    -2.618    -4.236
0    -1.618    -4.236
1.618    -2.618    -4.236
0     0     -5.236
3 0 1 3
3 1 2 3
3 1 19 9
3 1 9 10
3 1 10 2
3 2 10 11
3 2 11 3
3 19 25 26
3 19 26 9
3 9 26 10
3 10 26 20
3 10 20 11
3 20 26 27
3 11 20 27
3 11 27 28
3 0 3 5
3 3 11 4
3 3 4 5
3 4 11 12
3 4 12 5
3 5 12 13
3 5 13 22
3 11 28 29
3 11 29 21
3 11 21 12
3 12 21 30
3 21 29 30
3 12 30 13
3 13 30 22
3 22 30 31
3 0 5 7
3 5 22 14
3 5 14 15
3 5 15 6
3 5 6 7
3 7 6 16
3 6 15 16
3 22 31 32
3 14 22 32
3 15 14 32
3 23 15 32
3 33 23 32
3 16 15 23
3 16 23 33
3 16 33 34
3 0 7 1
3 7 16 8
3 7 8 1
3 8 16 17
3 8 17 1
3 1 17 18
3 1 18 19
3 16 34 35
3 16 35 24
3 16 24 17
3 17 24 36
3 24 35 36
3 18 17 36
3 19 18 36
3 19 36 25
3 26 25 37
3 26 37 43
3 26 43 44
3 26 44 38
3 26 38 27
3 27 38 45
3 27 45 28
3 38 44 45
3 37 53 43
3 54 44 53
3 44 43 53
3 44 54 45
3 45 54 55
3 54 53 55
3 55 53 61
3 29 28 45
3 29 45 39
3 30 29 39
3 39 45 46
3 30 39 46
3 30 46 47
3 30 47 40
3 30 40 31
3 45 55 56
3 46 45 56
3 46 56 57
3 47 46 57
3 40 47 57
3 56 55 57
3 57 55 61
3 32 31 40
3 32 40 48
3 32 48 49
3 32 49 41
3 32 41 33
3 33 41 50
3 41 49 50
3 34 33 50
3 48 40 57
3 49 48 57
3 49 57 58
3 50 49 58
3 50 58 59
3 58 57 59
3 59 57 61
3 35 34 50
3 35 50 42
3 36 35 42
3 42 50 51
3 36 42 51
3 36 51 52
3 36 52 37
3 36 37 25
3 50 59 60
3 51 50 60
3 51 60 53
3 52 51 53
3 37 52 53
3 53 60 59
3 53 59 61
